<mxfile host="app.diagrams.net" modified="2021-02-06T21:57:08.388Z" agent="5.0 (Windows NT 10.0; Win64; x64) AppleWebKit/537.36 (KHTML, like Gecko) Chrome/88.0.4324.146 Safari/537.36" etag="JeUgJuCydNShQ6X68Bav" version="14.2.9" type="github">
  <diagram id="C5RBs43oDa-KdzZeNtuy" name="Page-1">
    <mxGraphModel dx="1483" dy="829" grid="1" gridSize="10" guides="1" tooltips="1" connect="1" arrows="1" fold="1" page="1" pageScale="1" pageWidth="827" pageHeight="1169" math="0" shadow="0">
      <root>
        <mxCell id="WIyWlLk6GJQsqaUBKTNV-0" />
        <mxCell id="WIyWlLk6GJQsqaUBKTNV-1" parent="WIyWlLk6GJQsqaUBKTNV-0" />
        <mxCell id="0Eu2RLtld8ZS6GkCVdQ2-13" style="edgeStyle=orthogonalEdgeStyle;rounded=0;orthogonalLoop=1;jettySize=auto;html=1;entryX=0.25;entryY=0;entryDx=0;entryDy=0;" edge="1" parent="WIyWlLk6GJQsqaUBKTNV-1" source="0Eu2RLtld8ZS6GkCVdQ2-2" target="0Eu2RLtld8ZS6GkCVdQ2-4">
          <mxGeometry relative="1" as="geometry">
            <Array as="points">
              <mxPoint x="750" y="420" />
              <mxPoint x="620" y="420" />
            </Array>
          </mxGeometry>
        </mxCell>
        <mxCell id="0Eu2RLtld8ZS6GkCVdQ2-15" style="edgeStyle=orthogonalEdgeStyle;rounded=0;orthogonalLoop=1;jettySize=auto;html=1;entryX=0.25;entryY=0;entryDx=0;entryDy=0;" edge="1" parent="WIyWlLk6GJQsqaUBKTNV-1" source="0Eu2RLtld8ZS6GkCVdQ2-2" target="0Eu2RLtld8ZS6GkCVdQ2-7">
          <mxGeometry relative="1" as="geometry">
            <mxPoint x="320" y="30" as="targetPoint" />
            <Array as="points">
              <mxPoint x="670" y="30" />
              <mxPoint x="185" y="30" />
            </Array>
          </mxGeometry>
        </mxCell>
        <mxCell id="0Eu2RLtld8ZS6GkCVdQ2-2" value="" style="rounded=0;whiteSpace=wrap;html=1;" vertex="1" parent="WIyWlLk6GJQsqaUBKTNV-1">
          <mxGeometry x="590" y="90" width="320" height="285" as="geometry" />
        </mxCell>
        <mxCell id="0Eu2RLtld8ZS6GkCVdQ2-22" value="" style="edgeStyle=orthogonalEdgeStyle;rounded=0;orthogonalLoop=1;jettySize=auto;html=1;entryX=1;entryY=0.5;entryDx=0;entryDy=0;" edge="1" parent="WIyWlLk6GJQsqaUBKTNV-1" source="0Eu2RLtld8ZS6GkCVdQ2-4" target="0Eu2RLtld8ZS6GkCVdQ2-2">
          <mxGeometry relative="1" as="geometry">
            <mxPoint x="990" y="240" as="targetPoint" />
            <Array as="points">
              <mxPoint x="785" y="440" />
              <mxPoint x="980" y="440" />
              <mxPoint x="980" y="233" />
            </Array>
          </mxGeometry>
        </mxCell>
        <mxCell id="0Eu2RLtld8ZS6GkCVdQ2-4" value="PP" style="rounded=0;whiteSpace=wrap;html=1;" vertex="1" parent="WIyWlLk6GJQsqaUBKTNV-1">
          <mxGeometry x="570" y="460" width="160" height="70" as="geometry" />
        </mxCell>
        <mxCell id="0Eu2RLtld8ZS6GkCVdQ2-9" style="edgeStyle=orthogonalEdgeStyle;rounded=0;orthogonalLoop=1;jettySize=auto;html=1;entryX=0;entryY=0.5;entryDx=0;entryDy=0;" edge="1" parent="WIyWlLk6GJQsqaUBKTNV-1" source="0Eu2RLtld8ZS6GkCVdQ2-7" target="0Eu2RLtld8ZS6GkCVdQ2-2">
          <mxGeometry relative="1" as="geometry" />
        </mxCell>
        <mxCell id="0Eu2RLtld8ZS6GkCVdQ2-7" value="" style="rounded=0;whiteSpace=wrap;html=1;" vertex="1" parent="WIyWlLk6GJQsqaUBKTNV-1">
          <mxGeometry x="80" y="90" width="420" height="290" as="geometry" />
        </mxCell>
        <mxCell id="0Eu2RLtld8ZS6GkCVdQ2-0" value="Web-App (React.js)" style="rounded=0;whiteSpace=wrap;html=1;" vertex="1" parent="WIyWlLk6GJQsqaUBKTNV-1">
          <mxGeometry x="205" y="160" width="150" height="60" as="geometry" />
        </mxCell>
        <mxCell id="0Eu2RLtld8ZS6GkCVdQ2-10" value="Front-end&lt;br&gt;" style="text;html=1;strokeColor=none;fillColor=none;align=center;verticalAlign=middle;whiteSpace=wrap;rounded=0;" vertex="1" parent="WIyWlLk6GJQsqaUBKTNV-1">
          <mxGeometry x="200" y="90" width="160" height="40" as="geometry" />
        </mxCell>
        <mxCell id="0Eu2RLtld8ZS6GkCVdQ2-12" style="edgeStyle=orthogonalEdgeStyle;rounded=0;orthogonalLoop=1;jettySize=auto;html=1;" edge="1" parent="WIyWlLk6GJQsqaUBKTNV-1" source="0Eu2RLtld8ZS6GkCVdQ2-11" target="0Eu2RLtld8ZS6GkCVdQ2-0">
          <mxGeometry relative="1" as="geometry" />
        </mxCell>
        <mxCell id="0Eu2RLtld8ZS6GkCVdQ2-11" value="Bootstrap" style="rounded=0;whiteSpace=wrap;html=1;" vertex="1" parent="WIyWlLk6GJQsqaUBKTNV-1">
          <mxGeometry x="220" y="250" width="120" height="60" as="geometry" />
        </mxCell>
        <mxCell id="0Eu2RLtld8ZS6GkCVdQ2-18" style="edgeStyle=orthogonalEdgeStyle;rounded=0;orthogonalLoop=1;jettySize=auto;html=1;entryX=0.5;entryY=1;entryDx=0;entryDy=0;" edge="1" parent="WIyWlLk6GJQsqaUBKTNV-1" source="0Eu2RLtld8ZS6GkCVdQ2-17" target="0Eu2RLtld8ZS6GkCVdQ2-7">
          <mxGeometry relative="1" as="geometry" />
        </mxCell>
        <mxCell id="0Eu2RLtld8ZS6GkCVdQ2-17" value="Google Cloud" style="ellipse;shape=cloud;whiteSpace=wrap;html=1;" vertex="1" parent="WIyWlLk6GJQsqaUBKTNV-1">
          <mxGeometry x="200" y="430" width="180" height="120" as="geometry" />
        </mxCell>
        <mxCell id="0Eu2RLtld8ZS6GkCVdQ2-19" value="Back-end" style="text;html=1;strokeColor=none;fillColor=none;align=center;verticalAlign=middle;whiteSpace=wrap;rounded=0;" vertex="1" parent="WIyWlLk6GJQsqaUBKTNV-1">
          <mxGeometry x="705" y="95" width="90" height="25" as="geometry" />
        </mxCell>
        <mxCell id="0Eu2RLtld8ZS6GkCVdQ2-23" value="API Calls (Python Flask)" style="rounded=0;whiteSpace=wrap;html=1;" vertex="1" parent="WIyWlLk6GJQsqaUBKTNV-1">
          <mxGeometry x="690" y="140" width="130" height="100" as="geometry" />
        </mxCell>
        <mxCell id="0Eu2RLtld8ZS6GkCVdQ2-24" value="Data Models (Python)" style="rounded=0;whiteSpace=wrap;html=1;" vertex="1" parent="WIyWlLk6GJQsqaUBKTNV-1">
          <mxGeometry x="677.5" y="260" width="155" height="70" as="geometry" />
        </mxCell>
      </root>
    </mxGraphModel>
  </diagram>
</mxfile>
